<svg width="86" height="28" viewBox="0 0 86 28" fill="none" xmlns="http://www.w3.org/2000/svg">
<mask id="mask0_597_316" style="mask-type:luminance" maskUnits="userSpaceOnUse" x="0" y="0" width="86" height="28">
<path d="M85.9159 0.184013H0.0488281V27.1487H85.9159V0.184013Z" fill="white"/>
</mask>
<g mask="url(#mask0_597_316)">
<path d="M33.6925 12.6784L32.4391 12.2753C30.8124 11.7473 30.1482 11.1694 30.1482 10.2811C30.1482 9.39281 30.8443 8.94331 32.2159 8.94331C33.9908 8.94331 35.6325 9.78523 36.5012 11.1391L36.8408 11.6671L36.3718 8.67753L36.3136 8.64721C35.2685 8.12101 33.8313 7.7928 32.563 7.7928C30.0488 7.7928 28.3602 8.97363 28.3602 10.7306C28.3602 12.27 29.5366 13.3955 31.9569 14.1732L33.2103 14.5781C34.6175 15.033 35.3004 15.6947 35.3004 16.6027C35.3004 17.6426 34.3886 18.2401 32.7975 18.2401C30.8856 18.2401 29.3227 17.3714 28.2757 15.7304L27.9023 15.1436L28.5722 18.5826L28.6322 18.6111C29.6398 19.0803 31.1464 19.3853 32.4692 19.3853C35.3305 19.3853 37.1805 18.0867 37.1805 16.0747C37.1805 14.5193 36.0735 13.4401 33.6925 12.6784Z" fill="white"/>
<path d="M46.834 14.7991L48.8134 19.4279H50.6522L48.6765 14.8776C47.8115 14.5102 46.8359 14.7991 46.8359 14.7991" fill="white"/>
<path d="M48.42 14.2011H48.5157L45.3824 7.83317H43.7613L40.6542 15.0341C40.6542 15.0341 41.1477 14.6167 41.7612 14.3902C42.4273 14.144 42.7687 14.1511 42.7687 14.1511L44.6019 9.65792L46.5663 13.9282C44.3542 13.8889 40.127 14.4883 38.125 19.4328H39.9825C41.8437 15.3677 45.1235 14.5828 46.7839 14.3402C47.3074 14.2635 48.4294 14.2047 48.4294 14.2047H48.4238" fill="white"/>
<path d="M65.3118 7.84059C65.3118 7.84059 65.3006 7.84059 65.2949 7.84059V19.4259H67.0811V9.75454C67.0811 8.78597 66.3269 7.93156 65.3137 7.84238" fill="white"/>
<path d="M69.3008 7.86201V9.51018H73.5618V19.442H75.4024V11.5329C75.4024 10.9336 75.1191 10.3503 74.6012 10.0114C74.1359 9.70818 73.6706 9.53694 73.5937 9.51018H77.3574C78.9541 9.51018 79.6634 7.86201 79.6634 7.86201H69.3026H69.3008Z" fill="white"/>
<path d="M62.4283 15.7119C61.918 15.7564 61.1918 15.9544 60.7472 16.1168C60.0379 17.5009 58.7677 18.4338 57.3042 18.4338C55.0715 18.4338 53.2609 16.2827 53.2609 13.6285C53.2609 10.9743 55.0715 8.82308 57.3042 8.82308C58.9084 8.82308 60.2819 9.94149 60.9348 11.5522H62.7754L62.6441 11.2721C61.7266 9.31183 60.0642 8.10959 57.9572 7.88841C57.535 7.8563 57.0003 7.85452 56.5237 7.88841C53.8876 8.16489 51.8893 10.0003 51.4297 12.5636C51.3865 12.8044 51.3696 13.0416 51.3602 13.2414C51.3452 13.5482 51.3396 14.0013 51.3884 14.4169C51.7036 17.0871 53.7675 19.076 56.5293 19.3667C56.7564 19.3828 57.0078 19.3917 57.2517 19.3917C57.4956 19.3917 57.7377 19.3828 57.9609 19.3649C60.0586 19.1455 61.721 17.9469 62.6385 15.9919L62.7829 15.6833L62.5615 15.7012L62.4283 15.7119Z" fill="white"/>
<path d="M8.29353 13.2452C8.40986 13.2131 8.86204 13.0758 9.34799 12.8028C9.93526 12.4729 10.2355 12.1482 10.2355 12.1482C10.2355 12.1482 8.77198 10.9727 6.96701 10.4287C6.65368 11.053 6.42852 11.7255 6.30469 12.43C6.31782 12.4318 6.33096 12.4336 6.34597 12.4372C7.0946 12.562 7.85073 12.9616 8.29353 13.2452Z" fill="white"/>
<path d="M19.3345 14.1391C19.2182 14.1712 18.766 14.3085 18.28 14.5814C17.6928 14.9114 17.3926 15.2361 17.3926 15.2361C17.3926 15.2361 19.1075 16.6167 21.117 17.0787C21.1789 17.0091 21.2389 16.936 21.3008 16.8593C21.5823 16.2849 21.7905 15.6713 21.9125 15.0291C21.7174 15.0113 21.5072 14.9846 21.2839 14.9471C20.5353 14.8222 19.7792 14.4227 19.3364 14.1391" fill="white"/>
<path d="M13.5782 19.2053C13.5445 19.0948 13.4 18.6649 13.1129 18.2029C12.7658 17.6446 12.4243 17.3592 12.4243 17.3592C12.4243 17.3592 11.201 18.7344 10.625 20.4361C11.2779 20.7411 11.9815 20.9623 12.7208 21.089C12.7208 21.0783 12.7245 21.0693 12.7264 21.0586C12.8578 20.3469 13.278 19.6281 13.5764 19.2071" fill="white"/>
<path d="M14.3184 8.33494C14.3521 8.44553 14.4966 8.87541 14.7837 9.3374C15.1308 9.89571 15.4723 10.1811 15.4723 10.1811C15.4723 10.1811 16.8419 8.64174 17.3654 6.80272C16.6918 6.51553 15.9695 6.31397 15.2133 6.21408C15.2002 6.30148 15.1871 6.38889 15.1683 6.48164C15.037 7.19335 14.6167 7.9122 14.3184 8.33316" fill="white"/>
<path d="M15.1777 16.8702L15.1552 16.8595C15.1552 16.8595 16.825 13.7648 21.5007 12.4145C21.6376 12.3752 21.7727 12.3396 21.9059 12.3057C21.7615 11.5583 21.5007 10.8484 21.1423 10.1955C19.7858 10.7342 18.3279 11.4673 17.4179 12.3806C17.4179 12.3806 14.0613 10.7788 12.6185 6.47287C12.5978 6.41222 12.5791 6.34979 12.5603 6.28915C11.7873 6.43541 11.0555 6.6887 10.3819 7.03118C10.9598 8.31012 11.7347 9.6497 12.6935 10.4577C12.6935 10.4577 10.9505 13.6684 6.37238 14.9153C6.35174 14.9206 6.32923 14.926 6.30859 14.9313C6.43993 15.668 6.68197 16.369 7.01969 17.0165C8.33495 16.4743 9.70275 15.7518 10.5414 14.8653C10.5414 14.8653 13.7367 16.9594 15.2527 20.8551C15.2865 20.9407 15.3165 21.0281 15.3465 21.1137C16.1289 20.9978 16.8738 20.7731 17.5624 20.4573C16.977 19.1302 16.1758 17.7104 15.1777 16.8685M13.9468 16.7436C13.2095 14.9795 12.611 14.4105 10.7553 13.7095C12.611 13.0085 13.2095 12.4395 13.9468 10.6753C14.6842 12.4395 15.2827 13.0085 17.1384 13.7095C15.2827 14.4105 14.6842 14.9795 13.9468 16.7436Z" fill="white"/>
</g>
</svg>
