<svg width="161" height="27" viewBox="0 0 161 27" fill="none" xmlns="http://www.w3.org/2000/svg">
<path d="M7.67578 20.6226C6.2592 20.6226 5.04901 20.314 3.89699 19.6683C3.27782 19.3597 2.92321 19.2473 2.5686 19.2473C1.88939 19.2473 1.18204 19.7236 0.236405 20.6226H0V13.8033H0.266426L0.621042 14.8129C1.5648 17.5635 3.86884 20.2283 7.67578 20.2283C9.94793 20.2283 11.6309 19.3026 11.6309 17.1139C11.6309 12.0357 0.827426 12.849 0.827426 6.33842C0.827426 3.05457 3.80881 0.978302 7.23298 0.978302C8.47319 0.978302 9.53515 1.31543 10.4207 1.79168C10.9217 2.04497 11.2182 2.18411 11.6309 2.18411C12.1919 2.18411 12.7529 1.87552 13.6385 0.978302H13.905V6.95559H13.6104L13.2858 6.00129C12.3702 3.33461 9.97983 1.34397 7.29302 1.34397C5.2554 1.34397 4.10525 2.35356 4.10525 3.95357C4.10525 9.20131 15.027 8.21847 15.027 15.0662C15.027 18.4892 11.751 20.6226 7.67765 20.6226H7.67578Z" fill="white"/>
<path d="M20.4291 26.0947V25.7575L20.7537 25.729C22.4367 25.5881 23.2622 24.4661 23.2622 21.1822V20.285L18.3333 10.7438C17.0931 8.359 16.5621 7.74182 15.8829 7.65798L15.6465 7.62945V7.29232H23.2622V7.62945L22.7312 7.65798C21.491 7.71328 21.5792 8.33224 22.7012 10.6047L25.388 16.1325L26.9829 12.4562C28.0448 10.2676 28.0167 7.74182 26.4519 7.65798L25.9509 7.62945V7.29232H31.0862V7.62945L30.8498 7.65798C30.0524 7.77036 29.4032 8.61228 27.4557 12.4562L23.6769 20.285V21.1822C23.6769 24.4661 24.4443 25.5881 26.1273 25.729L26.4519 25.7575V26.0947H20.4309H20.4291Z" fill="white"/>
<path d="M50.6824 20.2588V19.9217L51.2133 19.8931C52.1871 19.8378 52.4235 19.7808 52.4235 16.1616V11.0262C52.4235 8.83757 51.4798 7.68706 49.915 7.68706C48.4384 7.68706 47.3764 8.6699 46.7272 10.0166C46.8754 10.55 46.9636 11.0547 46.9636 11.729V16.1634C46.9636 19.7826 47.2 19.8396 48.1738 19.8949L48.7048 19.9235V20.2606H41.2954V19.9235L41.8264 19.8949C42.8002 19.8396 43.0366 19.7826 43.0366 16.1634V11.028C43.0366 8.83935 42.0928 7.68885 40.528 7.68885C39.1997 7.68885 38.2259 8.47369 37.5467 9.62419V16.1634C37.5467 19.7826 37.8131 19.8396 38.7869 19.8949L39.3179 19.9235V20.2606H31.8203V19.9235L32.4113 19.8949C33.3851 19.8664 33.6215 19.7826 33.6215 16.1634V11.3937C33.6215 7.77446 33.3851 7.71738 32.4113 7.66209L31.8203 7.63355V7.29643H37.4885V9.12118C38.1677 7.99921 39.4079 6.96108 41.6801 6.96108C43.834 6.96108 45.7834 7.83154 46.5809 9.59922C47.3182 8.05629 48.6766 6.96108 51.067 6.96108C53.872 6.96108 56.3505 8.27926 56.3505 11.7308V16.1651C56.3505 19.7843 56.617 19.87 57.5607 19.8967L58.1518 19.9252V20.2624H50.6842L50.6824 20.2588Z" fill="white"/>
<path d="M67.4197 20.5953C66.6523 20.5953 65.7968 20.54 64.9412 20.3152V21.9991C64.9412 25.6183 65.2076 25.7039 66.476 25.7306L67.3616 25.7592V26.0963H59.2148V25.7592L59.8059 25.7306C60.7796 25.7021 61.016 25.6183 61.016 21.9991V11.3912C61.016 7.77201 60.7796 7.71493 59.8059 7.65963L59.2148 7.6311V7.29397H67.4197C71.3449 7.29397 74.8572 9.31494 74.8572 13.8599C74.8572 17.9 71.8458 20.5953 67.4197 20.5953ZM66.8869 7.65785H64.9393V19.921C65.7067 20.1172 66.3559 20.2296 67.0051 20.2296C69.6318 20.2296 70.6056 18.2657 70.6056 13.8599C70.6056 10.296 69.5136 7.65785 66.8869 7.65785Z" fill="white"/>
<path d="M84.5703 20.6223C79.9059 20.6223 77.1328 17.5079 77.1328 13.7745C77.1328 10.0412 79.9078 6.95531 84.5703 6.95531C89.2328 6.95531 92.0078 10.043 92.0078 13.8031C92.0078 17.5632 89.2328 20.6223 84.5703 20.6223ZM84.5703 7.32098C82.0017 7.32098 81.3825 9.73436 81.3825 13.8031C81.3825 17.8718 82.0017 20.2566 84.5703 20.2566C87.1389 20.2566 87.7281 17.8432 87.7281 13.8031C87.7281 9.7629 87.1089 7.32098 84.5703 7.32098Z" fill="white"/>
<path d="M99.6835 20.6227C98.7979 20.6227 98.0305 20.455 97.1149 20.0341C96.6721 19.8931 96.3475 19.754 96.0229 19.754C95.522 19.754 94.9891 20.0341 94.4281 20.6245H94.1035V15.9386H94.4281L94.6945 16.6129C95.3137 18.2682 96.8203 20.2606 99.6835 20.2606C101.248 20.2606 102.31 19.6149 102.31 18.2967C102.31 15.0414 94.7546 15.828 94.7546 10.8889C94.7546 8.47547 96.9686 6.96108 99.5372 6.96108C100.363 6.96108 101.042 7.15729 101.928 7.54971C102.222 7.66209 102.459 7.77446 102.725 7.77446C103.11 7.77446 103.581 7.49442 104.023 6.96108H104.318V11.1707H103.993L103.757 10.4964C103.138 8.78406 101.631 7.32496 99.5653 7.32496C98.2369 7.32496 97.4695 7.94214 97.4695 8.98027C97.4695 12.2909 105.085 11.4222 105.085 16.5576C105.085 19.1119 102.695 20.6263 99.6835 20.6263V20.6227Z" fill="white"/>
<path d="M107.299 20.2591V19.9219L107.89 19.8934C108.864 19.8649 109.1 19.781 109.1 16.1618V11.3921C109.1 7.77294 108.864 7.71585 107.89 7.66056L107.299 7.63202V7.2949H113.025V16.1618C113.025 19.781 113.292 19.8666 114.265 19.8934L114.856 19.9219V20.2591H107.301H107.299ZM111.018 4.88151C109.719 4.88151 108.834 4.15196 108.834 3.05675C108.834 1.90624 109.719 1.14816 111.018 1.14816C112.316 1.14816 113.232 1.8777 113.232 2.99967C113.232 4.12164 112.346 4.87972 111.018 4.87972V4.88151Z" fill="white"/>
<path d="M126.989 20.2581V18.4619C126.31 19.5571 125.218 20.5953 122.946 20.5953C120.201 20.5953 117.72 19.22 117.72 15.8523V11.3912C117.72 7.77201 117.484 7.71493 116.54 7.65963L115.949 7.6311V7.29397H121.646V16.5266C121.646 18.7437 122.589 19.8657 124.096 19.8657C125.454 19.8657 126.28 19.0809 126.929 17.9571V11.3912C126.929 7.77201 126.663 7.71493 125.689 7.65963L125.098 7.6311V7.29397H130.854V16.1609C130.854 19.7801 131.091 19.8657 132.064 19.8925L132.655 19.921V20.2581H126.987H126.989Z" fill="white"/>
<path d="M152.934 20.2588V19.9217L153.465 19.8931C154.439 19.8378 154.675 19.7808 154.675 16.1616V11.0262C154.675 8.83757 153.732 7.68706 152.167 7.68706C150.69 7.68706 149.628 8.6699 148.979 10.0166C149.127 10.55 149.216 11.0547 149.216 11.729V16.1634C149.216 19.7826 149.452 19.8396 150.426 19.8949L150.957 19.9235V20.2606H143.547V19.9235L144.078 19.8949C145.052 19.8396 145.289 19.7826 145.289 16.1634V11.028C145.289 8.83935 144.345 7.68885 142.78 7.68885C141.452 7.68885 140.478 8.47369 139.799 9.62419V16.1634C139.799 19.7826 140.065 19.8396 141.039 19.8949L141.57 19.9235V20.2606H134.072V19.9235L134.663 19.8949C135.637 19.8664 135.873 19.7826 135.873 16.1634V11.3937C135.873 7.77446 135.637 7.71738 134.663 7.66209L134.072 7.63355V7.29643H139.74V9.12118C140.42 7.99921 141.66 6.96108 143.932 6.96108C146.086 6.96108 148.035 7.83154 148.831 9.59922C149.568 8.05629 150.927 6.96108 153.317 6.96108C156.122 6.96108 158.601 8.27926 158.601 11.7308V16.1651C158.601 19.7843 158.867 19.87 159.811 19.8967L160.402 19.9252V20.2624H152.934V20.2588Z" fill="white"/>
</svg>
